<?xml version="1.0" encoding="UTF-8"?>
<svg id="Layer_1" data-name="Layer 1" xmlns="http://www.w3.org/2000/svg" viewBox="0 0 1080 1080">
  <defs>
    <style>
      .cls-1 {
        fill: #f89939;
      }
    </style>
  </defs>
  <polygon class="cls-1" points="450.24 433.3 448.74 490.24 448.74 682.67 376.16 682.67 257.81 551.21 257.81 682.67 204.21 682.67 204.21 487.65 271.94 487.65 395.14 624.68 395.14 487.65 410.78 487.65 410.78 456.38 450.24 433.3"/>
  <polygon class="cls-1" points="509.5 337.73 506.43 339.53 506.43 339.32 509.5 337.73"/>
  <polygon class="cls-1" points="599.11 368.9 596.14 367.98 528.02 342.39 528.02 682.67 506.43 682.67 506.43 467.45 467.36 443.44 467.36 362.48 506.43 339.53 509.5 337.73 528.02 328.14 599.11 368.9"/>
  <polygon class="cls-1" points="825.43 489.13 825.43 682.67 770.14 682.67 770.14 603.95 641.17 603.95 641.17 682.67 563.58 682.67 564.79 424.18 609.54 395.99 609.54 396.26 609.56 395.99 652.84 423.84 651.01 423.16 609.54 405.1 609.54 489.13 641.17 489.13 641.17 557.99 770.14 557.99 770.14 489.13 825.43 489.13"/>
</svg>