<?xml version="1.0" encoding="UTF-8"?>
<svg id="Layer_1" data-name="Layer 1" xmlns="http://www.w3.org/2000/svg" viewBox="0 0 1080 1080">
  <polygon points="438.62 447.38 437.12 504.32 437.12 696.75 364.55 696.75 246.19 565.28 246.19 696.75 192.59 696.75 192.59 501.72 260.32 501.72 383.53 638.76 383.53 501.72 399.16 501.72 399.16 470.45 438.62 447.38"/>
  <polygon points="497.89 351.81 494.81 353.61 494.81 353.39 497.89 351.81"/>
  <polygon points="587.5 382.98 584.53 382.05 516.41 356.47 516.41 696.75 494.81 696.75 494.81 481.53 455.74 457.52 455.74 376.56 494.81 353.61 497.89 351.81 516.41 342.22 587.5 382.98"/>
  <polygon points="813.81 503.21 813.81 696.75 758.53 696.75 758.53 618.03 629.56 618.03 629.56 696.75 551.96 696.75 553.17 438.26 597.93 410.06 597.93 410.34 597.94 410.06 641.22 437.91 639.39 437.24 597.93 419.18 597.93 503.21 629.56 503.21 629.56 572.06 758.53 572.06 758.53 503.21 813.81 503.21"/>
</svg>